# xmcd CD database file
#
# Track frame offsets:
#	150
#	20482
#	45290
#	66932
#	80570
#	104850
#	135107
#	157637
#	188630
#	220795
#	245052
#	268300
#	294587
#
# Disc length: 4224 seconds
#
# Revision: 0
# Processed by: cddbd v1.5.1PL2 Copyright (c) Steve Scherf et al.
# Submitted via: CDex 1.51
#
DISCID=b5107e0d
DTITLE=Mr.Children - Mr.Children 1996-2000
DYEAR=2000
DGENRE=JPop
TTITLE0=シーソーゲーム〜勇敢な恋の歌〜
TTITLE1=名もなき詩
TTITLE2=花- Memento-Mori -
TTITLE3=Mirror
TTITLE4=Everything(It's you)
TTITLE5=ALIVE
TTITLE6=ニシエヒガシエ
TTITLE7=光の射す方へ
TTITLE8=終わりなき旅
TTITLE9=ラララ
TTITLE10=つよがり
TTITLE11=口笛
TTITLE12=NOT FOUND
EXTD=YEAR: 2000
EXTT0=
EXTT1=
EXTT2=
EXTT3=
EXTT4=
EXTT5=
EXTT6=
EXTT7=
EXTT8=
EXTT9=
EXTT10=
EXTT11=
EXTT12=
PLAYORDER=
